<svg width="35" height="35" viewBox="0 0 35 35" fill="none" xmlns="http://www.w3.org/2000/svg">
<path d="M17.5292 8.18843C17.2841 8.18843 17.0246 8.18843 16.7796 8.18843C16.6643 8.18843 16.6354 8.21726 16.6354 8.33258C16.6354 8.82268 16.6499 9.32719 16.6354 9.81729C16.6354 9.96144 16.6787 9.97585 16.8084 9.97585C17.2985 9.97585 17.803 9.97585 18.2932 9.97585C18.3941 9.97585 18.4373 9.94703 18.4229 9.84612C18.4229 9.34161 18.4229 8.83709 18.4229 8.33258C18.4229 8.21726 18.3796 8.20284 18.2787 8.20284C18.0337 8.18843 17.7886 8.18843 17.5292 8.18843ZM10.0334 11.5759C10.3362 11.1723 10.61 10.7831 10.8983 10.4083C11.4605 9.64432 12.0371 8.89475 12.5849 8.13077C12.7723 7.8713 13.0317 7.69833 13.2768 7.52535C13.5795 7.30913 13.8822 7.07849 14.1849 6.86227C14.9777 6.28568 15.785 5.69468 16.5778 5.11809C16.8661 4.90187 17.1544 4.70006 17.4427 4.48384C17.5292 4.41177 17.5724 4.4406 17.6445 4.48384C18.3076 4.97394 18.9851 5.44963 19.6337 5.93973C20.4986 6.57398 21.3635 7.19381 22.214 7.84247C22.4158 7.98662 22.5311 8.21726 22.6753 8.40465C23.4248 9.41368 24.1744 10.4083 24.924 11.4173C24.9528 11.4606 24.9816 11.5038 25.0105 11.5471C24.8663 11.5903 24.7366 11.5615 24.6069 11.5615C24.405 11.5615 24.2032 11.5615 24.0014 11.5615C23.9149 11.5615 23.8861 11.5903 23.8861 11.6768C23.8861 12.2822 23.8861 12.8732 23.8861 13.4786C23.8861 14.7183 23.8861 15.9436 23.8861 17.1832C23.8861 17.313 23.814 17.2985 23.742 17.2841C23.223 17.1544 22.6897 17.0679 22.1707 16.9814C21.8392 16.9238 21.4932 16.8805 21.1617 16.8373C21.032 16.8229 21.0031 16.794 21.0031 16.6643C21.0031 15.0498 21.0031 13.4498 21.0031 11.8354C21.0031 11.5759 21.0031 11.5759 20.7293 11.5759C19.504 11.5759 18.2932 11.5903 17.0679 11.5759C16.1165 11.5615 15.1651 11.5759 14.2138 11.5759C14.084 11.5759 14.0408 11.6047 14.0408 11.7489C14.0408 13.3777 14.0408 15.0066 14.0408 16.6355C14.0408 16.7796 14.0264 16.8373 13.8534 16.8517C13.1182 16.9382 12.3831 17.0679 11.6623 17.2121C11.6191 17.2265 11.5758 17.2265 11.5326 17.2409C11.4173 17.2697 11.2587 17.3418 11.2011 17.2985C11.1146 17.2265 11.1722 17.0679 11.1722 16.9382C11.1722 15.2084 11.1722 13.4642 11.1722 11.7345C11.1722 11.6191 11.1434 11.5903 11.0281 11.5903C10.7254 11.5903 10.3938 11.5759 10.0334 11.5759Z" fill="white"/>
<path d="M27.0285 18.7401C26.6681 18.7112 26.3077 18.6824 25.9618 18.6536C25.4428 18.5959 24.9239 18.6103 24.405 18.5671C23.5256 18.5094 22.6608 18.5671 21.7815 18.6103C20.8157 18.668 19.8499 18.7689 18.8985 18.9274C17.7309 19.1148 16.5777 19.3743 15.4389 19.7058C14.7903 19.8932 14.156 20.1095 13.5073 20.3257C12.5127 20.6716 11.5613 21.0897 10.6099 21.5365C9.7883 21.9257 8.98107 22.3726 8.20267 22.8483C7.58283 23.223 6.96299 23.6122 6.3864 24.0447C6.29991 24.1023 6.25667 24.0879 6.19901 24.0014C5.96837 23.5834 5.76656 23.1654 5.56475 22.7474C5.3197 22.214 5.14672 21.6518 4.95933 21.1041C4.85843 20.8158 4.80077 20.4987 4.74311 20.1815C4.72869 20.1095 4.72869 20.0518 4.81518 20.0086C5.55034 19.6482 6.31433 19.3166 7.07831 19.0284C7.49634 18.8698 7.92879 18.7112 8.36123 18.5671C8.93783 18.3653 9.51442 18.2067 10.1054 18.0481C10.5667 17.9184 11.0424 17.8175 11.5037 17.7166C12.0658 17.5869 12.628 17.5004 13.1902 17.4139C13.9398 17.2986 14.6893 17.2121 15.4533 17.1688C16.5056 17.0968 17.5435 17.0535 18.5958 17.1112C19.1724 17.14 19.7634 17.1544 20.34 17.2265C20.8012 17.2698 21.2625 17.3274 21.7094 17.3995C22.1274 17.4571 22.5454 17.5292 22.9635 17.6013C23.4968 17.7022 24.0302 17.8175 24.5491 17.9472C25.0969 18.077 25.6446 18.2211 26.178 18.4085C26.4519 18.5094 26.7546 18.5815 27.0285 18.7401Z" fill="white"/>
<path d="M28.2393 20.3689C27.6483 20.6428 27.0573 20.9311 26.4807 21.2194C25.6303 21.6518 24.8086 22.1275 24.0014 22.6464C23.0212 23.2807 22.0842 23.9582 21.1905 24.6933C20.2247 25.4861 19.3021 26.3366 18.4517 27.2447C17.7886 27.9511 17.1543 28.6862 16.5633 29.4502C16.3327 29.7529 16.1165 30.0412 15.9002 30.3439C15.857 30.416 15.7993 30.4448 15.7128 30.4304C15.2804 30.3871 14.8624 30.2862 14.4587 30.1998C13.3776 29.9403 12.3542 29.5367 11.374 29.0177C11.0857 28.8592 10.7974 28.6718 10.5091 28.5132C10.4082 28.4556 10.3938 28.4267 10.4803 28.3403C10.9415 27.9078 11.4028 27.4898 11.8785 27.0862C12.5704 26.4952 13.2911 25.9474 14.0551 25.4285C14.6606 25.0104 15.266 24.6357 15.9002 24.2609C16.9813 23.6266 18.1057 23.0645 19.2589 22.5744C20.513 22.041 21.8103 21.5942 23.1365 21.2338C24.059 20.9887 24.996 20.8013 25.933 20.6284C26.6393 20.4986 27.3456 20.4266 28.0664 20.3545C28.0952 20.3545 28.1673 20.3689 28.2393 20.3689Z" fill="white"/>
<path d="M30.2574 20.4697C28.5421 27.5041 22.0842 30.9492 16.7651 30.5168C18.3652 28.3546 20.2247 26.4518 22.3437 24.823C24.7365 22.9635 27.3745 21.522 30.2574 20.4697Z" fill="white"/>
<path d="M27.2014 19.5902C27.187 19.6479 27.1438 19.6335 27.1005 19.6479C25.4861 19.8208 23.9004 20.1524 22.3436 20.5992C20.8733 21.0173 19.4318 21.565 18.048 22.1993C17.3849 22.502 16.7219 22.8479 16.0876 23.2083C15.338 23.6263 14.6029 24.0732 13.8965 24.5489C12.9596 25.1831 12.0514 25.8606 11.201 26.6102C10.7253 27.0282 10.2496 27.4462 9.80273 27.8931C9.74507 27.9508 9.71624 27.9508 9.64417 27.8931C8.88018 27.3021 8.17386 26.6534 7.56843 25.9039C7.30897 25.5867 7.06391 25.284 6.83328 24.9525C6.77562 24.8804 6.77562 24.8372 6.86211 24.7795C7.55402 24.275 8.26035 23.8281 8.9955 23.3957C10.0766 22.7614 11.1866 22.1993 12.3397 21.7092C13.2046 21.3344 14.0984 21.0173 15.0065 20.729C15.5687 20.556 16.1308 20.4118 16.7074 20.2677C17.4282 20.0803 18.1345 19.9362 18.8697 19.8064C19.6048 19.6767 20.3544 19.5902 21.104 19.5181C22.4878 19.3884 23.8716 19.374 25.2554 19.4316C25.7744 19.4605 26.3077 19.5037 26.8267 19.5614C26.9132 19.5614 27.0573 19.5758 27.2014 19.5902Z" fill="white"/>
<path d="M15.0642 12.1665H19.9941C19.8211 12.3395 19.677 12.498 19.5184 12.6422C18.8841 13.2764 18.2499 13.8963 17.6301 14.5305C17.5436 14.6314 17.4859 14.617 17.4138 14.5305C16.8805 13.9683 16.3183 13.435 15.785 12.8728C15.5543 12.6422 15.3237 12.4116 15.0642 12.1665Z" fill="white"/>
<path d="M20.4265 12.5703V12.9019C20.4265 14.1271 20.4265 15.3524 20.4265 16.5776C20.4265 16.7218 20.3833 16.7506 20.2535 16.7362C20.1671 16.7218 20.0661 16.6929 19.9797 16.7073C19.6914 16.7506 19.4896 16.6209 19.3022 16.4046C18.913 15.9866 18.4949 15.583 18.0769 15.1794C17.976 15.0785 17.976 15.0064 18.0769 14.9055C18.7688 14.2136 19.4607 13.5217 20.1382 12.8298C20.2247 12.7577 20.3112 12.6712 20.4265 12.5703Z" fill="white"/>
<path d="M14.6461 12.585C15.2371 13.176 15.7993 13.7381 16.3615 14.3147C16.5777 14.5309 16.7939 14.7472 17.0246 14.9634C17.0822 15.0211 17.1111 15.0643 17.039 15.1364C16.5345 15.6265 16.0444 16.1166 15.5543 16.6211C15.4822 16.6932 15.4101 16.722 15.3236 16.722C15.1506 16.722 14.9777 16.722 14.8047 16.7652C14.6894 16.7941 14.6317 16.7508 14.6317 16.6211C14.6461 16.2031 14.6317 15.7994 14.6317 15.3814C14.6317 14.5165 14.6317 13.6517 14.6317 12.7868C14.6317 12.7147 14.6461 12.657 14.6461 12.585Z" fill="white"/>
<path d="M18.6535 17.1397C17.9183 17.0965 17.1688 17.0821 16.4192 17.1397C16.4192 17.0388 16.4336 16.9812 16.4768 16.9235C16.794 16.4767 17.1111 16.0298 17.4138 15.5685C17.5003 15.4532 17.5435 15.4388 17.63 15.5685C17.976 16.0731 18.3219 16.5632 18.6823 17.0677C18.6823 17.1109 18.6679 17.1253 18.6535 17.1397Z" fill="white"/>
<path d="M33.6449 17.5002C33.6882 8.95226 26.7835 1.37011 17.5003 1.3557C8.60634 1.34128 1.35568 8.49099 1.34126 17.5002C1.34126 26.668 8.75049 33.5294 17.1976 33.6591C26.3078 33.8033 33.6882 26.4085 33.6449 17.5002ZM17.5147 34.9997C8.05858 35.0573 -0.0858064 27.331 0.000682619 17.3272C0.0871717 7.69818 7.92885 -0.0857746 17.6589 0.000713819C27.4898 0.0872022 35.0287 8.15945 34.9999 17.5434C34.9855 27.2013 27.0429 35.0429 17.5147 34.9997Z" fill="white"/>
</svg>
