<svg width="375" height="260" viewBox="0 0 375 260" fill="none" xmlns="http://www.w3.org/2000/svg">
<g clip-path="url(#clip0_4_29)">
<mask id="mask0_4_29" style="mask-type:luminance" maskUnits="userSpaceOnUse" x="0" y="0" width="375" height="260">
<path d="M375 0H0V260H375V0Z" fill="white"/>
</mask>
<g mask="url(#mask0_4_29)">
<path d="M253.1 222.125H260.768C266.196 222.125 270.359 223.605 273.256 226.557C276.162 229.518 277.606 233.632 277.606 238.907C277.606 244.183 276.171 248.193 273.284 251.089C270.415 253.994 266.234 255.437 260.759 255.437H253.1V222.125ZM260.759 217.627H247.559V260H260.759C265.371 260 269.375 259.157 272.768 257.47C276.143 255.783 278.74 253.356 280.549 250.18C282.359 247.003 283.259 243.236 283.259 238.898C283.259 234.559 282.359 230.802 280.549 227.588C278.749 224.393 276.152 221.919 272.768 220.204C269.393 218.48 265.39 217.618 260.759 217.618V217.627ZM243.247 193.33V172.003H265.812V165.34H243.247V144.632H268.484V137.97H235.166V199.973H268.484V193.311H243.247V193.33ZM210.37 217.562H204.839V259.991H210.37V226.248L232.616 259.991H238.147V217.562H232.616V251.239L210.37 217.562ZM196.439 217.562H173.639V259.991H196.439V255.427H179.18V240.838H194.62V236.284H179.18V222.125H196.439V217.562ZM164.218 217.627H158.687V260H164.218V217.627ZM167.386 138.513H158.677V199.992H166.768V154.068L187.289 199.992H192.98L213.417 154.152V199.992H221.498V138.513H212.873L190.13 189.338L167.386 138.513ZM127.253 222.191H135.4C138.428 222.191 140.696 222.875 142.178 224.252C143.65 225.639 144.39 227.578 144.39 230.08C144.39 232.582 143.64 234.531 142.14 236.012C140.64 237.492 138.39 238.233 135.39 238.233H127.244V222.181H127.253V222.191ZM135.39 217.637H121.713V260.009H127.244V242.684H133.928L144.015 260.009H150.662L140.021 242.253C143.378 241.531 145.909 240.041 147.587 237.82C149.265 235.6 150.099 233.013 150.099 230.099C150.099 227.71 149.556 225.583 148.459 223.718C147.362 221.853 145.712 220.382 143.509 219.286C141.296 218.189 138.597 217.646 135.39 217.646M124.647 168.198H112.741V144.744H124.647C129.091 144.744 132.4 145.747 134.556 147.762C136.722 149.776 137.8 152.625 137.8 156.298C137.8 159.971 136.703 162.801 134.509 164.956C132.315 167.111 129.034 168.198 124.647 168.198ZM146.949 200.001L131.406 174.064C136.318 172.996 140.003 170.841 142.468 167.58C144.924 164.328 146.153 160.562 146.153 156.298C146.153 152.803 145.356 149.692 143.753 146.965C142.159 144.238 139.74 142.074 136.515 140.481C133.281 138.888 129.325 138.082 124.656 138.082H104.66V200.001H112.75V174.683H122.519L137.265 200.001H146.959H146.949ZM115.028 217.637H91.0852V260.009H96.6163V240.913H111.569V236.415H96.6163V222.125H115.038V217.627L115.028 217.637ZM8.09042 144.651H35.0054V138.082H0V200.001H8.09042V172.106H29.943V165.528H8.09042V144.651ZM79.0855 179.658H56.6986L67.9014 148.389L79.0949 179.658H79.0855ZM94.9008 200.001L72.5982 138.438H63.2703L40.8834 200.001H49.4144L54.3924 186.236H81.4011L86.3791 200.001H94.9008ZM136.375 55.0229C136.375 55.0229 136.375 55.0323 136.375 55.0416V88.9062C135.962 93.6476 131.425 97.377 125.875 97.377C120.053 97.377 115.338 93.2634 115.338 88.2034V55.7163C115.338 50.6469 120.053 46.5427 125.875 46.5427C131.697 46.5427 135.972 50.2815 136.375 55.0323M140.743 55.7257C140.743 50.6563 145.459 46.5521 151.281 46.5521C157.102 46.5521 161.818 50.6563 161.818 55.7257V88.2128C161.818 93.2822 157.102 97.3864 151.281 97.3864C145.459 97.3864 140.743 93.2728 140.743 88.2128V55.7163V55.7257ZM138.4 48.7541C135.943 45.2027 131.481 42.8227 126.372 42.8227H125.022C117.26 42.8227 110.969 48.3043 110.969 55.0604V89.2998C110.969 96.0558 117.26 101.537 125.022 101.537H126.372C131.481 101.537 135.943 99.1574 138.4 95.606C140.856 99.1574 145.318 101.537 150.427 101.537H151.777C159.54 101.537 165.83 96.0558 165.83 89.2998V55.0416C165.83 48.2856 159.54 42.8039 151.777 42.8039H150.427C145.318 42.8039 140.856 45.184 138.4 48.7354M208.739 35.7386C184.317 56.9907 162.774 38.3436 159.971 35.9823V34.6142H159.915V5.55664H208.682V30.8004H208.739V35.7386ZM229.701 38.8496V38.3436C229.701 36.938 228.557 35.7949 227.151 35.7949H213.679V0H154.815V35.7949H141.55C140.143 35.7949 139 36.938 139 38.3436V38.8496C139 39.9741 139.909 40.8923 141.043 40.8923H159.962V40.6394C184.955 63.6811 208.729 40.9486 208.729 40.9486V40.8923H227.647C228.772 40.8923 229.691 39.9834 229.691 38.8496M252.237 88.2034C252.237 93.2728 247.522 97.377 241.7 97.377C235.878 97.377 231.163 93.2634 231.163 88.2034V55.7163C231.163 50.6469 235.878 46.5427 241.7 46.5427C247.522 46.5427 252.237 50.6469 252.237 55.7163V88.2034ZM226.794 55.0323C226.794 55.0323 226.794 55.0416 226.794 55.051V88.9156C226.382 93.657 221.844 97.3864 216.295 97.3864C210.473 97.3864 205.757 93.2728 205.757 88.2128V55.7163C205.757 50.6469 210.473 46.5427 216.295 46.5427C222.116 46.5427 226.391 50.2815 226.794 55.0323ZM256.25 89.2904V55.0416C256.25 48.2856 249.959 42.8039 242.197 42.8039H240.847C235.738 42.8039 231.275 45.184 228.819 48.7354C226.363 45.184 221.901 42.8039 216.791 42.8039H215.441C207.679 42.8039 201.389 48.2856 201.389 55.0416V89.281C201.389 96.0371 207.679 101.519 215.441 101.519H216.791C221.901 101.519 226.363 99.1387 228.819 95.5873C231.275 99.1387 235.738 101.519 240.847 101.519H242.197C249.959 101.519 256.25 96.0371 256.25 89.281M188.761 105.07H178.149L183.455 88.7563L188.761 105.07ZM277.493 120.475H280.755V105.585C280.755 105.585 203.629 105.792 203.629 105.585C185.067 105.192 187.083 65.5458 187.289 62.1912H180.455C180.661 65.5458 182.677 105.192 164.115 105.585C164.115 105.792 86.9884 105.585 86.9884 105.585V120.475H90.2509L92.0883 111.704H108.494L111.278 120.269H113.191L115.975 111.704H132.278L135.062 120.269H136.975L139.759 111.704H156.052L158.837 120.269H160.749L163.533 111.704H179.827L182.611 120.269H185.17L187.955 111.704H204.248L207.032 120.269H208.945L211.729 111.704H228.022L230.807 120.269H232.719L235.503 111.704H251.806L254.591 120.269H256.503L259.287 111.704H275.693L277.531 120.475H277.493ZM300.724 168.189H288.818V144.735H300.733C305.177 144.735 308.477 145.738 310.642 147.752C312.808 149.767 313.886 152.615 313.886 156.289C313.886 159.962 312.789 162.792 310.595 164.947C308.402 167.102 305.121 168.189 300.733 168.189M323.036 199.992L307.492 174.055C312.405 172.987 316.089 170.831 318.555 167.571C321.011 164.319 322.239 160.552 322.239 156.289C322.239 152.793 321.442 149.682 319.839 146.956C318.245 144.229 315.827 142.064 312.602 140.471C309.377 138.878 305.42 138.073 300.742 138.073H280.746V199.992H288.837V174.673H298.605L313.352 199.992H323.045H323.036ZM365.485 153.168H374.372C373.894 148.371 371.813 144.519 368.11 141.615C364.407 138.71 359.654 137.257 353.851 137.257C349.819 137.257 346.257 137.97 343.145 139.384C340.042 140.809 337.623 142.823 335.907 145.428C334.192 148.033 333.329 151.032 333.329 154.405C333.329 158.256 334.201 161.311 335.945 163.598C337.688 165.884 339.788 167.552 342.254 168.62C344.71 169.688 347.982 170.747 352.069 171.815C355.388 172.706 358.022 173.54 359.982 174.308C361.941 175.076 363.563 176.201 364.866 177.681C366.169 179.162 366.825 181.083 366.825 183.453C366.825 186.471 365.719 188.944 363.497 190.875C361.285 192.805 358.238 193.761 354.394 193.761C350.551 193.761 347.298 192.768 345.198 190.781C343.088 188.794 341.888 186.358 341.598 183.453H332.982C333.039 186.827 333.985 189.806 335.823 192.383C337.66 194.96 340.191 196.975 343.426 198.427C346.651 199.88 350.316 200.601 354.404 200.601C358.669 200.601 362.363 199.786 365.503 198.118C368.644 196.459 371.016 194.295 372.609 191.634C374.213 188.973 375.009 186.124 375.009 183.097C375.009 179.19 374.119 176.098 372.347 173.811C370.566 171.534 368.438 169.848 365.944 168.751C363.46 167.655 360.169 166.549 356.082 165.415C352.707 164.469 350.082 163.626 348.216 162.885C346.351 162.145 344.776 161.058 343.51 159.643C342.235 158.219 341.598 156.382 341.598 154.133C341.598 150.994 342.666 148.549 344.795 146.806C346.923 145.054 349.688 144.182 353.054 144.182C356.672 144.182 359.569 145.091 361.763 146.89C363.957 148.689 365.194 150.779 365.494 153.15" fill="white"/>
</g>
</g>
<defs>
<clipPath id="clip0_4_29">
<rect width="375" height="260" fill="white"/>
</clipPath>
</defs>
</svg>

