<svg width="80" height="56" viewBox="0 0 80 56" fill="none" xmlns="http://www.w3.org/2000/svg">
<mask id="mask0_1924_2745" style="mask-type:luminance" maskUnits="userSpaceOnUse" x="0" y="0" width="80" height="56">
<path d="M80 0H0V55.4667H80V0Z" fill="white"/>
</mask>
<g mask="url(#mask0_1924_2745)">
<path d="M53.9946 47.3867H55.6305C56.7884 47.3867 57.6766 47.7024 58.2946 48.3322C58.9145 48.9639 59.2226 49.8415 59.2226 50.9668C59.2226 52.0924 58.9164 52.9479 58.3005 53.5657C57.6885 54.1854 56.7965 54.4933 55.6285 54.4933H53.9946V47.3867ZM55.6285 46.4271H52.8126V55.4667H55.6285C56.6124 55.4667 57.4666 55.2869 58.1905 54.927C58.9105 54.5671 59.4645 54.0493 59.8504 53.3718C60.2365 52.694 60.4285 51.8904 60.4285 50.9649C60.4285 50.0393 60.2365 49.2378 59.8504 48.5521C59.4664 47.8705 58.9124 47.3427 58.1905 46.9769C57.4705 46.6091 56.6165 46.4252 55.6285 46.4252V46.4271ZM51.8927 41.2438V36.694H56.7065V35.2725H51.8927V30.8548H57.2765V29.4336H50.1687V42.6609H57.2765V41.2397H51.8927V41.2438ZM44.8789 46.4132H43.699V55.4648H44.8789V48.2663L49.6247 55.4648H50.8047V46.4132H49.6247V53.5977L44.8789 46.4132ZM41.907 46.4132H37.043V55.4648H41.907V54.4911H38.225V51.3788H41.5189V50.4073H38.225V47.3867H41.907V46.4132ZM35.0332 46.4271H33.8532V55.4667H35.0332V46.4271ZM35.709 29.5495H33.8511V42.665H35.5772V32.8679L39.955 42.665H41.169L45.5289 32.8858V42.665H47.2529V29.5495H45.4129L40.561 40.3921L35.709 29.5495ZM27.1473 47.4008H28.8853C29.5313 47.4008 30.0151 47.5467 30.3313 47.8404C30.6453 48.1363 30.8032 48.55 30.8032 49.0838C30.8032 49.6175 30.6432 50.0333 30.3232 50.3492C30.0032 50.665 29.5232 50.8231 28.8832 50.8231H27.1454V47.3986H27.1473V47.4008ZM28.8832 46.4292H25.9654V55.4686H27.1454V51.7726H28.5713L30.7232 55.4686H32.1412L29.8711 51.6807C30.5873 51.5266 31.1272 51.2088 31.4852 50.735C31.8432 50.2614 32.0211 49.7095 32.0211 49.0878C32.0211 48.5782 31.9053 48.1244 31.6712 47.7265C31.4372 47.3287 31.0852 47.0148 30.6152 46.781C30.1431 46.547 29.5673 46.4312 28.8832 46.4312M26.5913 35.8823H24.0514V30.8787H26.5913C27.5394 30.8787 28.2453 31.0927 28.7053 31.5226C29.1673 31.9522 29.3973 32.56 29.3973 33.3436C29.3973 34.1272 29.1633 34.7309 28.6952 35.1906C28.2272 35.6504 27.5272 35.8823 26.5913 35.8823ZM31.3491 42.6669L28.0333 37.1337C29.0812 36.9058 29.8673 36.4461 30.3932 35.7504C30.9171 35.0567 31.1793 34.2532 31.1793 33.3436C31.1793 32.598 31.0093 31.9343 30.6673 31.3525C30.3272 30.7708 29.8112 30.3091 29.1232 29.9693C28.4333 29.6295 27.5893 29.4575 26.5933 29.4575H22.3275V42.6669H24.0533V37.2657H26.1374L29.2832 42.6669H31.3512H31.3491ZM24.5393 46.4292H19.4315V55.4686H20.6115V51.3948H23.8014V50.4352H20.6115V47.3867H24.5414V46.4271L24.5393 46.4292ZM1.72596 30.8589H7.46781V29.4575H0V42.6669H1.72596V36.716H6.38784V35.3127H1.72596V30.8589ZM16.8716 38.3271H12.0957L14.4856 31.6563L16.8736 38.3271H16.8716ZM20.2455 42.6669L15.4876 29.5335H13.4977L8.72179 42.6669H10.5417L11.6037 39.7304H17.3656L18.4275 42.6669H20.2455ZM29.0933 11.7382C29.0933 11.7382 29.0933 11.7402 29.0933 11.7422V18.9667C29.0052 19.9782 28.0373 20.7738 26.8533 20.7738C25.6113 20.7738 24.6054 19.8962 24.6054 18.8167V11.8861C24.6054 10.8047 25.6113 9.92911 26.8533 9.92911C28.0953 9.92911 29.0073 10.7267 29.0933 11.7402M30.0252 11.8882C30.0252 10.8067 31.0312 9.93112 32.2733 9.93112C33.5151 9.93112 34.5211 10.8067 34.5211 11.8882V18.8187C34.5211 19.9002 33.5151 20.7758 32.2733 20.7758C31.0312 20.7758 30.0252 19.8982 30.0252 18.8187V11.8861V11.8882ZM29.5253 10.4009C29.0012 9.64325 28.0493 9.13551 26.9593 9.13551H26.6713C25.0155 9.13551 23.6734 10.3049 23.6734 11.7462V19.0506C23.6734 20.4919 25.0155 21.6612 26.6713 21.6612H26.9593C28.0493 21.6612 29.0012 21.1536 29.5253 20.396C30.0493 21.1536 31.0012 21.6612 32.0911 21.6612H32.3791C34.0352 21.6612 35.377 20.4919 35.377 19.0506V11.7422C35.377 10.3009 34.0352 9.1315 32.3791 9.1315H32.0911C31.0012 9.1315 30.0493 9.63926 29.5253 10.3969M44.531 7.62424C39.3209 12.158 34.7251 8.17997 34.1271 7.67623V7.38437H34.1152V1.18542H44.5188V6.57075H44.531V7.62424ZM49.0028 8.28792V8.17997C49.0028 7.88011 48.7588 7.63625 48.4588 7.63625H45.5848V0H33.0272V7.63625H30.1973C29.8972 7.63625 29.6533 7.88011 29.6533 8.17997V8.28792C29.6533 8.52781 29.8472 8.72369 30.0892 8.72369H34.1252V8.66974C39.457 13.5853 44.5288 8.73571 44.5288 8.73571V8.72369H48.5647C48.8047 8.72369 49.0007 8.5298 49.0007 8.28792M53.8105 18.8167C53.8105 19.8982 52.8047 20.7738 51.5626 20.7738C50.3206 20.7738 49.3147 19.8962 49.3147 18.8167V11.8861C49.3147 10.8047 50.3206 9.92911 51.5626 9.92911C52.8047 9.92911 53.8105 10.8047 53.8105 11.8861V18.8167ZM48.3827 11.7402C48.3827 11.7402 48.3827 11.7422 48.3827 11.7442V18.9687C48.2948 19.9802 47.3267 20.7758 46.1429 20.7758C44.9009 20.7758 43.8948 19.8982 43.8948 18.8187V11.8861C43.8948 10.8047 44.9009 9.92911 46.1429 9.92911C47.3847 9.92911 48.2967 10.7267 48.3827 11.7402ZM54.6666 19.0486V11.7422C54.6666 10.3009 53.3246 9.1315 51.6687 9.1315H51.3807C50.2907 9.1315 49.3386 9.63926 48.8147 10.3969C48.2907 9.63926 47.3388 9.1315 46.2487 9.1315H45.9607C44.3048 9.1315 42.963 10.3009 42.963 11.7422V19.0466C42.963 20.4879 44.3048 21.6574 45.9607 21.6574H46.2487C47.3388 21.6574 48.2907 21.1496 48.8147 20.392C49.3386 21.1496 50.2907 21.6574 51.3807 21.6574H51.6687C53.3246 21.6574 54.6666 20.4879 54.6666 19.0466M40.269 22.4149H38.0051L39.137 18.9347L40.269 22.4149ZM59.1985 25.7013H59.8944V22.5248C59.8944 22.5248 43.4408 22.569 43.4408 22.5248C39.4809 22.441 39.911 13.9831 39.955 13.2675H38.497C38.541 13.9831 38.9711 22.441 35.0112 22.5248C35.0112 22.569 18.5575 22.5248 18.5575 22.5248V25.7013H19.2535L19.6455 23.8302H23.1454L23.7393 25.6574H24.1474L24.7413 23.8302H28.2193L28.8132 25.6574H29.2213L29.8152 23.8302H33.2911L33.8852 25.6574H34.2931L34.887 23.8302H38.3631L38.957 25.6574H39.5029L40.097 23.8302H43.5729L44.1668 25.6574H44.5749L45.1688 23.8302H48.6447L49.2388 25.6574H49.6467L50.2406 23.8302H53.7186L54.3127 25.6574H54.7206L55.3145 23.8302H58.8145L59.2066 25.7013H59.1985ZM64.1544 35.8803H61.6145V30.8768H64.1563C65.1044 30.8768 65.8084 31.0908 66.2702 31.5204C66.7323 31.9503 66.9623 32.5579 66.9623 33.3417C66.9623 34.1252 66.7283 34.729 66.2602 35.1887C65.7924 35.6484 65.0924 35.8803 64.1563 35.8803M68.9143 42.665L65.5983 37.1317C66.6464 36.9039 67.4323 36.444 67.9584 35.7485C68.4823 35.0547 68.7443 34.2511 68.7443 33.3417C68.7443 32.5959 68.5742 31.9322 68.2323 31.3506C67.8922 30.7689 67.3764 30.307 66.6884 29.9672C66.0004 29.6273 65.1562 29.4556 64.1583 29.4556H59.8924V42.665H61.6185V37.2636H63.7024L66.8484 42.665H68.9162H68.9143ZM77.9701 32.6759H79.866C79.764 31.6525 79.3201 30.8307 78.5301 30.2112C77.7401 29.5915 76.7261 29.2815 75.4882 29.2815C74.628 29.2815 73.8681 29.4336 73.2042 29.7353C72.5422 30.0393 72.0262 30.4689 71.6601 31.0247C71.2942 31.5804 71.1101 32.2202 71.1101 32.9397C71.1101 33.7613 71.2962 34.413 71.6682 34.9009C72.0401 35.3886 72.4881 35.7444 73.0141 35.9723C73.5381 36.2001 74.2361 36.426 75.108 36.6539C75.8161 36.844 76.378 37.0219 76.7961 37.1857C77.214 37.3496 77.5601 37.5896 77.838 37.9053C78.116 38.2212 78.2559 38.6311 78.2559 39.1367C78.2559 39.7805 78.02 40.3081 77.546 40.72C77.0741 41.1318 76.4241 41.3357 75.604 41.3357C74.7842 41.3357 74.0902 41.1239 73.6422 40.7C73.1921 40.2761 72.9361 39.7564 72.8742 39.1367H71.0361C71.0483 39.8564 71.2501 40.492 71.6422 41.0417C72.0341 41.5915 72.574 42.0214 73.2642 42.3311C73.9522 42.6411 74.734 42.7949 75.6061 42.7949C76.516 42.7949 77.3041 42.621 77.9739 42.2652C78.644 41.9113 79.15 41.4496 79.4899 40.8819C79.8321 40.3143 80.0019 39.7065 80.0019 39.0607C80.0019 38.2272 79.812 37.5676 79.434 37.0797C79.054 36.5939 78.6001 36.2343 78.068 36.0002C77.5381 35.7664 76.836 35.5305 75.9641 35.2885C75.2441 35.0867 74.6841 34.9069 74.286 34.7488C73.8882 34.5909 73.5522 34.3591 73.2821 34.0572C73.0101 33.7534 72.8742 33.3615 72.8742 32.8817C72.8742 32.2121 73.102 31.6905 73.5562 31.3186C74.0102 30.9449 74.6001 30.7588 75.3181 30.7588C76.09 30.7588 76.708 30.9528 77.1761 31.3365C77.6441 31.7203 77.908 32.1662 77.972 32.672" fill="#3C4F18"/>
</g>
</svg>
